<?xml version="1.0" encoding="utf-8"?>
<!-- Generator: Adobe Illustrator 16.0.0, SVG Export Plug-In . SVG Version: 6.00 Build 0)  -->
<!DOCTYPE svg PUBLIC "-//W3C//DTD SVG 1.1//EN" "http://www.w3.org/Graphics/SVG/1.1/DTD/svg11.dtd">
<svg version="1.1" id="Layer_1" xmlns="http://www.w3.org/2000/svg" xmlns:xlink="http://www.w3.org/1999/xlink" x="0px" y="0px"
	 width="1892px" height="1892px" viewBox="0 0 1892 1892" enable-background="new 0 0 1892 1892" xml:space="preserve">
<rect fill="#FFC100" stroke="#000000" stroke-miterlimit="10" width="1892" height="1892"/>
<g>
	<path fill="#2F160F" d="M1352.873,1275.901c0-21.152,0.166-42.308-0.039-63.457c-0.298-30.654-0.391-61.323-1.479-91.953
		c-0.738-20.753-2.854-41.468-4.729-62.166c-0.75-8.272-5.146-15.022-11.152-20.685c-0.728-0.685-1.735-1.179-2.218-1.994
		c-1.203-2.041-2.179-4.216-3.245-6.337c2.071-0.834,4.122-2.327,6.221-2.396c13.485-0.439,26.98-0.623,40.475-0.78
		c15.162-0.176,30.326-0.233,45.489-0.345c0.166-0.001,0.35-0.045,0.497,0.009c3.259,1.186,6.514,2.38,9.77,3.573
		c-1.408,2.841-2.203,6.296-4.33,8.417c-10.348,10.325-14.313,22.858-14.355,37.131c-0.23,78.984-0.79,157.968-0.741,236.951
		c0.032,50.812,0.897,101.628,1.427,152.44c0.258,24.818,0.19,49.65,1.064,74.448c0.497,14.099,1.508,28.364,4.363,42.124
		c1.84,8.862,7.435,16.949,11.384,25.366c0.612,1.309,1.427,2.522,2.588,4.549c-2.236,0.186-3.778,0.417-5.322,0.422
		c-19.331,0.061-38.664-0.055-57.992,0.213c-5.204,0.072-7.437-1.771-8.239-6.907c-4.018-25.644-8.206-51.261-12.509-76.856
		c-8.438-50.211-16.965-100.406-25.507-150.599c-3.099-18.206-6.34-36.389-9.533-54.577c-0.225-1.276-0.595-2.526-1.753-3.789
		c-0.224,1.85-0.641,3.7-0.643,5.551c-0.04,30.664-0.396,61.333,0.056,91.99c0.73,49.804,1.94,99.603,3.106,149.397
		c0.151,6.464,0.998,12.942,1.964,19.35c1.256,8.332,5.081,15.423,11.463,21.061c1.288,1.14,2.418,2.455,4.612,4.706
		c-3.162,0.229-4.89,0.458-6.617,0.462c-22.497,0.06-44.995,0.094-67.492,0.115c-7.55,0.007-8.374-0.725-8.337-8.242
		c0.187-37.652,0.558-75.306,0.625-112.959c0.081-44.661,0.017-89.323-0.171-133.983c-0.122-29.486-0.579-58.972-0.869-88.457
		c-0.383-38.818-0.663-77.64-1.155-116.455c-0.276-21.82-0.965-43.635-1.33-65.453c-0.231-13.797-3.89-26.604-10.52-38.621
		c-2.172-3.938-4.542-7.767-6.66-11.73c-2.938-5.5-1.545-8.192,4.785-8.419c8.153-0.291,16.327-0.128,24.49-0.041
		c13.325,0.141,26.648,0.385,39.974,0.572c7.108,0.103,8.796,1.235,10.035,8.36c4.416,25.403,8.62,50.843,12.951,76.261
		c7.797,45.764,15.629,91.519,23.438,137.277c1.204,7.056,2.343,14.124,3.568,21.177c0.327,1.88,0.871,3.724,1.315,5.583
		C1352.02,1276.104,1352.446,1276.002,1352.873,1275.901z"/>
	<path fill="#2F160F" d="M1639.757,1610.901c-1.62,0.105-3.362,0.319-5.104,0.319c-55.994,0.019-111.989,0.021-167.983,0.01
		c-7.139-0.002-7.971-0.856-7.867-8.166c0.603-42.472,1.551-84.94,1.746-127.414c0.184-39.979-0.491-79.963-0.656-119.944
		c-0.155-37.99-0.222-75.981-0.18-113.974c0.046-41.481,0.055-82.967,0.508-124.444c0.176-15.952,0.271-32.082,2.635-47.795
		c3.991-26.561,21.537-42.45,48.273-43.354c37.117-1.256,74.285-1.046,111.434-1.266c4.785-0.028,9.569,1.213,14.371,1.712
		c4.119,0.429,4.018,3.029,2.76,5.679c-1.053,2.219-2.768,4.147-4.329,6.094c-7.799,9.709-11.782,20.878-12.06,33.217
		c-0.753,33.636-1.671,67.275-1.778,100.918c-0.13,40.147,0.563,80.299,0.807,120.449c0.229,38.149,0.463,76.302,0.464,114.452
		c0,37.654-0.701,75.312-0.277,112.96c0.209,18.773,1.804,37.568,3.619,56.271c1.073,11.047,5.657,21.162,12.338,30.179
		c0.587,0.79,1.047,1.685,1.481,2.569C1640.074,1609.611,1639.889,1609.998,1639.757,1610.901z M1520.223,1230.716
		c0.166,0.001,0.333,0.001,0.499,0.001c0.507,35.132,0.977,70.264,1.542,105.396c0.174,10.81,0.394,21.629,1.014,32.419
		c0.381,6.64,2.408,7.468,8.207,4.078c6.468-3.779,12.703-8.01,19.386-11.354c7.039-3.525,9.765-9.089,9.838-16.496
		c0.301-30.45,0.894-60.901,0.806-91.352c-0.069-24.466-1.043-48.927-1.475-73.392c-0.532-30.135-0.906-60.271-1.38-90.406
		c-0.089-5.689-1.476-7.139-7.029-7.334c-3.325-0.118-6.674-0.181-9.985,0.062c-16.211,1.193-21.354,6.479-21.391,22.488
		C1520.161,1146.79,1520.223,1188.753,1520.223,1230.716z M1522.011,1501.27c-0.482,0.015-0.966,0.028-1.448,0.043
		c1.244,25.759,2.416,51.521,3.77,77.272c0.575,10.938,4.386,20.449,13.441,27.286c4.521,3.414,7.064,3.558,9.979-1.139
		c3.905-6.293,8.095-12.893,9.823-19.935c2.312-9.424,3.065-19.38,3.304-29.137c1.05-43.101,2.194-86.217-0.967-129.291
		c-0.419-5.705-1.414-6.337-6.266-3.632c-8.578,4.785-17.069,9.724-25.644,14.516c-3.994,2.231-6.057,5.359-6.031,10.072
		C1522.066,1465.308,1522.011,1483.288,1522.011,1501.27z"/>
	<path fill="#2F160F" d="M519.217,1610.82c-30.271,0-60.516,0-92.011,0c1.47-2.976,2.315-5.417,3.744-7.449
		c6.337-9.012,9.485-19.123,9.772-29.963c0.676-25.478,1.191-50.962,1.371-76.446c0.378-53.653,0.771-107.309,0.659-160.962
		c-0.151-72.325-0.538-144.652-1.346-216.975c-0.226-20.103-2.253-40.188-3.535-60.274c-0.641-10.024-6.146-17.729-12.187-25.208
		c-1.348-1.669-1.935-3.951-2.871-5.952c1.954-0.67,3.88-1.803,5.869-1.93c7.966-0.51,15.949-0.946,23.929-0.976
		c26.333-0.092,52.684-0.536,78.99,0.282c11.496,0.357,23.729,1.438,34.188,5.714c22.018,8.999,34.297,27.682,38.095,50.422
		c3.438,20.594,4.666,41.685,5.231,62.6c0.766,28.291,0.076,56.626-0.218,84.938c-0.112,10.81-0.222,21.685-1.453,32.398
		c-2.295,19.952-12.712,34.292-31.562,42.105c-1.956,0.812-3.729,2.061-6.425,3.576c2.037,1.817,3.456,3.293,5.079,4.493
		c4.55,3.364,9.406,6.348,13.742,9.961c13.053,10.875,19.642,25.071,19.944,41.953c0.862,47.97,1.348,95.946,2.288,143.914
		c0.628,31.974,1.806,63.938,2.688,95.906c0.211,7.659-0.552,8.381-8.082,8.385c-21.5,0.013-43,0.011-64.5-0.007
		c-1.781-0.002-3.562-0.161-5.82-0.271c0.454-1.446,0.517-2.48,1.035-3.171c8.619-11.447,11.438-24.605,11.405-38.582
		c-0.139-59.65-0.209-119.303-0.563-178.952c-0.061-10.306-1.119-20.629-2.166-30.897c-1.49-14.615-8.262-21.238-22.85-23.083
		c-15.751-1.991-18.326,0.23-18.326,15.823c0,20.666-0.2,41.335,0.041,61.999c0.52,44.479,0.931,88.962,2.114,133.425
		c0.37,13.901,2.396,27.87,4.982,41.561C511.851,1596.471,516.046,1603.229,519.217,1610.82z M503.329,1186.866
		c0,29.152-0.023,58.308,0.02,87.461c0.011,6.191,1.7,7.604,7.945,7.027c5.141-0.476,10.288-0.907,15.411-1.538
		c8.874-1.095,14.12-5.385,15.925-14.104c1.479-7.138,2.729-14.475,2.775-21.73c0.301-47.444,1.608-94.928-3.75-142.228
		c-1.25-11.029-5.871-16.951-15.175-18.289c-5.578-0.802-11.271-0.804-16.908-1.204c-4.11-0.293-5.667,1.782-5.715,5.678
		c-0.082,6.654-0.483,13.308-0.498,19.961C503.298,1134.222,503.334,1160.544,503.329,1186.866z"/>
	<path fill="#2F160F" d="M755.599,1459.014c0-27.66,0.066-55.322-0.013-82.983c-0.201-70.814-0.557-141.629-0.657-212.444
		c-0.031-22.964,0.355-45.933,0.864-68.893c0.847-38.188,22.305-66.173,58.678-72.853c21.277-3.905,43.262-3.238,62.976,8.623
		c18.248,10.98,31.136,26.796,35.821,47.358c3.288,14.422,3.515,29.689,3.841,44.609c0.79,36.139,0.868,72.293,1.174,108.441
		c0.13,15.302,0.048,30.605,0.162,45.907c0.271,36.483,0.608,72.968,0.912,109.451c0.307,36.984,0.646,73.971,0.886,110.957
		c0.102,15.819,0.544,31.668-0.165,47.458c-1.104,24.621-10.431,45.519-30.248,61.069c-4.734,3.716-9.71,5.729-16.004,5.646
		c-23.659-0.312-47.327-0.312-70.986-0.011c-7.042,0.09-12.262-2.018-17.189-7.138c-13.438-13.96-24.35-29.154-27.317-48.869
		c-0.643-4.271-1.471-8.575-1.492-12.868c-0.134-27.82-0.068-55.643-0.068-83.462
		C756.379,1459.015,755.989,1459.015,755.599,1459.014z M818.024,1383.452c0.051,0,0.102,0,0.151,0
		c0,21.821,0.02,43.643-0.005,65.464c-0.032,29.484-0.11,58.969-0.139,88.453c-0.009,9.1,3.979,14.183,12.791,16.505
		c11.854,3.123,23.467-4.218,24.651-17.357c1.821-20.188,2.703-40.499,3.018-60.772c0.391-25.303-0.227-50.621-0.358-75.934
		c-0.109-20.819-0.191-41.643-0.211-62.463c-0.062-66.8,0.078-133.6-0.265-200.396c-0.069-13.607-1.455-27.26-3.08-40.789
		c-1.057-8.786-10.762-15.35-19.915-14.812c-9.095,0.531-16.255,7.873-16.663,17.364c-0.38,8.814-0.758,17.642-0.72,26.459
		c0.163,37.287,0.61,74.572,0.711,111.859C818.123,1285.838,818.024,1334.645,818.024,1383.452z"/>
	<path fill="#2F160F" d="M247.673,1323.017c0-66.819-0.109-133.643,0.091-200.463c0.041-13.469,0.808-26.974,2.012-40.393
		c2.535-28.251,20.254-49.465,47.548-57.376c30.401-8.812,59.562-7.255,85.333,12.968c17.063,13.392,26.36,31.177,26.688,53.483
		c0.694,47.303,1.752,94.6,2.912,141.893c0.17,6.945-2.543,11.398-8.365,14.539c-15.242,8.223-30.442,16.526-45.694,24.731
		c-4.987,2.683-6.436,2.054-7.507-3.444c-0.633-3.24-0.938-6.594-0.946-9.898c-0.109-46.324-0.017-92.65-0.309-138.976
		c-0.054-8.605-1.129-17.281-2.554-25.786c-1.623-9.685-9.707-15.746-19.207-15.434c-8.773,0.289-16.669,6.928-17.39,16.271
		c-0.96,12.429-0.993,24.945-0.995,37.426c-0.017,79.979,0.125,159.962,0.129,239.942c0.001,32.991-0.387,65.984-0.26,98.976
		c0.084,21.629,0.744,43.256,1.229,64.881c0.057,2.479,0.539,4.969,1.021,7.414c2.018,10.252,9.67,17.221,18.235,16.698
		c11.769-0.715,19.282-8.106,19.869-19.665c0.187-3.657,0.168-7.328,0.184-10.994c0.171-42.488,0.266-84.979,0.522-127.469
		c0.102-16.654,0.635-33.306,0.808-49.959c0.053-5.095,2.027-8.189,6.838-10.339c15.047-6.723,29.896-13.886,44.844-20.83
		c5.906-2.744,7.872-1.642,8.367,4.836c0.431,5.643,0.835,11.308,0.808,16.96c-0.266,56.15-0.368,112.305-1.099,168.449
		c-0.241,18.6-0.834,37.381-3.634,55.718c-4.134,27.065-29.05,50.604-56.188,53.683c-13.571,1.54-27.735,1.764-41.185-0.317
		c-31.415-4.86-49.937-25.017-57.711-55.005c-2.77-10.686-4.126-22.02-4.209-33.071c-0.414-55.15-0.189-110.308-0.189-165.462
		C247.673,1352.342,247.673,1337.679,247.673,1323.017z"/>
	<path fill="#2F160F" d="M1635.548,953.818c-24.692,0-47.908,0-71.763,0c0.576-1.737,0.859-3.164,1.492-4.415
		c5.602-11.084,7.891-22.79,7.762-35.222c-0.26-24.991-0.062-49.988-0.07-74.983c0-0.98-0.166-1.961-0.32-3.661
		c-1.948,0.863-3.561,1.521-5.123,2.278c-4.793,2.318-9.521,4.775-14.359,6.994c-6.682,3.063-8.913,6.603-8.848,14.062
		c0.193,21.646,0.358,43.296,0.453,64.943c0.039,9.19-0.381,18.442,6.725,25.851c-4.754,4.907-10.201,6.393-16.201,6.322
		c-11.486-0.137-22.978-0.604-34.456-0.408c-4.786,0.081-5.898-1.634-5.869-6.037c0.156-23.494,0.071-46.99,0.071-70.485
		c0-60.487-0.062-120.976,0.027-181.463c0.041-27.315-0.049-54.646,0.775-81.942c0.41-13.598,2.121-27.239,4.357-40.677
		c3.146-18.895,15.547-29.701,33.624-33.982c7.229-1.712,14.818-2.5,22.259-2.597c24.484-0.315,48.975-0.132,73.462-0.104
		c1.591,0.002,3.181,0.305,5.386,0.529c-1.137,1.905-1.786,3.229-2.645,4.4c-7.272,9.92-10.125,21.035-10.109,33.291
		c0.117,95.314,0.068,190.628,0.062,285.942c-0.001,11.997,0.044,23.995-0.117,35.991
		C1621.864,917.602,1622.387,936.548,1635.548,953.818z M1545.149,798.396c7.516-3.798,14.016-7.518,20.865-10.403
		c5.227-2.201,7.095-5.331,7.078-11.017c-0.176-62.479-0.109-124.958-0.11-187.438c0-1,0.359-2.257-0.108-2.944
		c-0.933-1.371-2.234-3.316-3.546-3.453c-4.45-0.46-8.973-0.24-13.467-0.267c-4.734-0.026-7.385,2.517-8.437,6.95
		c-0.46,1.94-1.12,3.893-1.198,5.857c-0.551,13.959-1.33,27.921-1.374,41.886c-0.161,51.147-0.067,102.299-0.051,153.447
		C1544.803,793.156,1544.998,795.296,1545.149,798.396z"/>
	<path fill="#2F160F" d="M934.604,1611.237c1.263-2.151,1.689-3.242,2.419-4.069c9.711-11.033,12.604-24.275,12.676-38.49
		c0.303-59.649,0.872-119.302,0.888-178.953c0.014-52.984-0.534-105.972-0.909-158.957c-0.248-34.981-0.157-69.977-1.12-104.94
		c-0.633-22.955-2.907-45.863-4.369-68.799c-0.439-6.897-4.37-12-8.062-17.384c-1.868-2.724-2.744-6.129-4.068-9.227
		c3.247-0.915,6.48-2.57,9.742-2.628c25.487-0.45,50.979-0.666,76.471-0.767c4.554-0.019,9.108,0.836,15.161,1.435
		c-2.481,2.687-3.732,4.661-5.509,5.86c-10.252,6.918-14.995,17.025-15.546,28.814c-1.15,24.622-2.203,49.274-2.26,73.917
		c-0.197,86.826-0.069,173.655,0.17,260.481c0.107,39.155,0.75,78.311,1.194,117.465c0.125,10.994,0.306,21.988,0.665,32.978
		c0.228,6.929,1.965,9.506,8.617,10.004c24.354,1.821,48.677,2.282,71.587-8.3c4.338-2.004,8.209-5.032,12.262-7.642
		c4.525-2.915,7.197-2.048,7.295,3.318c0.37,20.634,0.317,41.273,0.322,61.911c0.002,3.646-2.767,4.064-5.647,4.063
		c-11.833-0.005-23.666,0.016-35.499,0.008c-43.166-0.029-86.332-0.067-129.497-0.103
		C939.625,1611.236,937.667,1611.237,934.604,1611.237z"/>
	<path fill="#2F160F" d="M1247.614,538.932c2.342-0.293,3.782-0.632,5.223-0.629c28.814,0.07,57.629,0.178,86.443,0.287
		c1.164,0.005,2.331,0.089,3.491,0.191c19.933,1.761,29.075,8.633,33.899,27.992c3.116,12.508,5.599,25.479,5.939,38.306
		c0.715,26.79,0.073,53.628-0.571,80.433c-0.178,7.393-2.007,14.812-3.674,22.082c-2.253,9.827-8.124,17.379-16.248,23.233
		c-1.346,0.97-2.668,1.972-3.986,2.977c-0.103,0.079-0.092,0.308-0.272,0.995c1.847,0.769,3.778,1.55,5.693,2.371
		c11.337,4.861,17.56,13.009,17.683,25.79c0.537,56.127,1.26,112.253,1.971,168.379c0.082,6.489,0.416,12.98,0.827,19.46
		c0.188,2.979-0.271,4.724-3.866,4.696c-15.661-0.121-31.325,0.062-46.984-0.132c-6.438-0.078-6.391-1.597-4.16-7.427
		c2.744-7.17,5.361-14.946,5.44-22.489c0.504-47.979,0.321-95.969,0.248-143.953c-0.005-3.104-0.679-6.302-1.579-9.293
		c-2.062-6.847-5.844-9.284-14.047-9.334c-10.528-0.063-8.919-0.402-8.928,8.738c-0.048,50.652,0.089,101.306-0.117,151.955
		c-0.041,10.06,1.828,19.141,8.405,26.962c0.502,0.599,0.722,1.433,1.43,2.893c-24.084,0-47.623,0-72.281,0
		c1.993-2.592,3.128-4.651,4.785-6.123c7.229-6.415,9.005-14.828,9.214-23.9c0.169-7.327,0.536-14.653,0.538-21.979
		c0.036-103.138,0.034-206.272,0.007-309.409c-0.003-8.327-0.154-16.658-0.434-24.98c-0.287-8.578-4.646-15.47-9.621-22.054
		C1250.729,543.178,1249.41,541.36,1247.614,538.932z M1310.248,644.623c0,16.828,0,33.656,0,50.484
		c0,14.025-0.007,13.979,14.086,11.904c4.455-0.654,7.561-2.906,8.493-7.258c0.971-4.519,1.857-9.163,1.885-13.759
		c0.17-28.156,0.097-56.315,0.082-84.474c-0.007-15.861-4.001-19.566-19.931-19.351c-3.885,0.053-4.709,1.402-4.684,4.968
		C1310.326,606.301,1310.249,625.462,1310.248,644.623z"/>
	<path fill="#2F160F" d="M1237.047,954.442c-2.304,0.165-4.239,0.424-6.175,0.425c-37.821,0.022-75.645,0.026-113.465,0.01
		c-8.718-0.004-8.774-0.142-8.682-9.028c0.308-29.143,0.826-58.284,0.817-87.428c-0.011-38.141-0.587-76.281-0.661-114.422
		c-0.088-44.313,0.021-88.628,0.228-132.94c0.057-12.147,0.54-24.306,1.217-36.437c1.258-22.525,16.476-36.668,38.898-36.869
		c23.313-0.21,46.625-0.759,69.938-1.018c4.643-0.053,9.311,0.376,13.934,0.876c5.494,0.594,6.009,2.306,2.999,7.117
		c-2.98,4.768-6.4,9.504-8.118,14.747c-1.721,5.249-2.141,11.108-2.156,16.703c-0.312,104.796-0.465,209.593-0.688,314.39
		c-0.03,14.677,0.185,29.356,4.228,43.576C1231.252,940.803,1234.243,947.148,1237.047,954.442z M1180.995,673.998
		c-0.479,0.001-0.959,0.002-1.438,0.003c0-28.81,0.023-57.619-0.014-86.428c-0.012-9.434-0.812-10.109-9.985-9.31
		c-14.329,1.251-17.312,4.391-17.24,18.717c0.18,35.806,0.351,71.61,0.716,107.413c0.246,24.144,0.804,48.283,1.264,72.425
		c0.034,1.812,0.362,3.625,0.615,5.43c0.516,3.679,2.416,3.877,5.208,2.104c2.807-1.782,5.495-4.01,8.569-5.066
		c8.902-3.062,12.363-9.314,12.338-18.331C1180.942,731.969,1180.995,702.983,1180.995,673.998z M1179.893,818.341
		c-8.467,4.759-15.733,8.448-22.5,12.901c-1.914,1.26-3.231,4.719-3.331,7.228c-0.547,13.8-1.003,27.622-0.776,41.425
		c0.273,16.813,1.172,33.619,1.973,50.422c0.353,7.394,2.742,14.039,8.604,19.018c4.271,3.628,5.882,3.083,8.969-1.513
		c6.352-9.455,7.724-20.148,7.935-31.015c0.51-26.147,0.769-52.304,0.853-78.457
		C1181.634,832.111,1180.572,825.869,1179.893,818.341z"/>
	<path fill="#2F160F" d="M581.371,950.009c-21.527,0-42.444,0-63.981,0c0.438-1.559,0.466-2.978,1.155-3.898
		c7.248-9.677,7.989-21.025,8.133-32.391c0.322-25.489,0.355-50.98,0.469-76.473c0.183-40.813,0.636-81.629,0.421-122.44
		c-0.249-47.304-1.107-94.604-1.676-141.904c-0.152-12.788-2.216-24.912-11.479-34.676c-0.331-0.349-0.558-0.834-0.722-1.295
		c-0.164-0.46-0.188-0.97-0.447-2.442c3.343-0.523,6.658-1.508,9.967-1.487c25.65,0.159,51.306,0.222,76.945,0.895
		c21.92,0.573,39.527,17.682,43.077,40.848c3.823,24.962,4.152,50.077,3.415,75.244c-0.466,15.813-0.986,31.627-1.386,47.441
		c-0.431,17.074-7.55,29.386-24.448,34.889c-0.465,0.151-0.895,0.431-1.316,0.688c-0.282,0.171-0.522,0.408-1.388,1.103
		c1.626,1.225,3.018,2.499,4.606,3.437c15.324,9.031,23.318,22.174,23.462,40.188c0.248,31.148,0.688,62.298,1.263,93.442
		c0.444,24.138,1.243,48.269,1.828,72.402c0.177,7.26-0.241,7.616-7.591,7.625c-14.163,0.017-28.326,0.02-42.49-0.012
		c-1.937-0.005-3.872-0.235-6.429-0.401c0.673-1.598,0.923-2.691,1.521-3.539c5.185-7.34,7.511-15.637,7.517-24.46
		c0.033-44.153-0.016-88.308-0.268-132.46c-0.041-7.131-1.138-14.268-1.937-21.378c-1.388-12.359-17.062-15.969-25.513-13.047
		c-1.407,0.485-2.831,3.353-2.834,5.122c-0.055,39.986-0.248,79.98,0.36,119.962c0.24,15.913,1.913,31.848,3.783,47.673
		C576.218,935.635,579.157,942.359,581.371,950.009z M571.42,644.518c-0.062,0-0.123,0-0.186,0c0,2.334,0,4.667,0,7
		c0.001,19.498,0.084,38.996-0.06,58.493c-0.032,4.372,1.618,6.198,5.91,5.707c2.643-0.303,5.286-0.597,7.931-0.875
		c9.562-1.009,13.812-4.903,14.647-14.429c0.596-6.788,0.494-13.644,0.577-20.469c0.366-30.473,1.206-60.945-2.434-91.326
		c-1.076-8.996-4.458-12.886-13.444-13.482c-2.161-0.143-4.328-0.223-6.483-0.424c-5.614-0.521-6.435,0.116-6.443,5.811
		C571.396,601.854,571.42,623.188,571.42,644.518z"/>
	<path fill="#2F160F" d="M1218.46,1610.876c-32.264,0-63.149,0-95.282,0c1.838-3.122,2.885-5.751,4.647-7.747
		c7.545-8.548,10.854-18.579,10.98-29.791c0.412-36.652,0.877-73.306,1.148-109.96c0.439-59.483,0.812-118.969,1.086-178.454
		c0.267-58.149,0.529-116.303,0.427-174.453c-0.022-12.941-1.041-25.945-2.584-38.804c-1.566-13.056-6.897-24.956-13.989-36.039
		c-1.404-2.196-2.491-4.597-4.235-7.856c33.959,0,66.89,0,101.09,0c-2.839,4.063-5.002,7.683-7.669,10.881
		c-7.131,8.551-10.708,18.355-10.823,29.401c-0.484,46.484-1.098,92.97-1.268,139.454c-0.105,28.821,0.755,57.646,0.738,86.469
		c-0.052,85.818-0.341,171.64-0.471,257.459c-0.011,6.983,0.292,13.981,0.78,20.95c0.772,11.054,4.881,20.993,10.724,30.298
		C1215.229,1605.02,1216.514,1607.469,1218.46,1610.876z"/>
	<path fill="#2F160F" d="M746.53,1028.319c-1.921,3.409-2.896,6.111-4.663,8.113c-8.939,10.127-12.729,22.02-12.904,35.318
		c-0.461,34.817-1.386,69.635-1.37,104.451c0.021,47.317,1.021,94.636,1.103,141.954c0.101,58.99-0.342,117.98-0.475,176.973
		c-0.052,22.793-0.018,45.587,0.207,68.378c0.145,14.468,3.945,27.939,12.061,40.082c1.318,1.976,2.249,4.211,3.777,7.125
		c-32.029,0-62.897,0-95.14,0c2.047-3.291,3.313-6.122,5.275-8.337c7.359-8.31,10.292-18.097,10.39-28.959
		c0.705-78.804,1.579-157.607,2.076-236.412c0.475-75.149,0.759-150.304,0.644-225.455c-0.021-14.9-1.655-29.876-3.623-44.673
		c-1.506-11.315-6.759-21.524-12.889-31.189c-1.271-2.004-1.755-4.509-2.601-6.78c2.286-0.681,4.574-1.957,6.859-1.949
		c28.147,0.088,56.295,0.354,84.441,0.613C741.491,1027.589,743.279,1027.952,746.53,1028.319z"/>
	<path fill="#2F160F" d="M363.098,740.482c0.506,4.092,1.271,7.32,1.249,10.546c-0.334,52.143-0.565,104.288-1.26,156.427
		c-0.378,28.409-23.92,50.589-52.355,49.962c-7.3-0.16-14.756-0.227-21.844-1.733c-22.357-4.753-33.943-20.307-38.993-41.437
		c-1.494-6.251-2.119-12.853-2.126-19.293c-0.057-51.815,0.214-103.632,0.217-155.447c0.002-48.817-0.258-97.636-0.249-146.453
		c0.001-7.308,0.46-14.663,1.369-21.913c2.787-22.219,21.516-40.021,44.065-41.307c9.873-0.562,20.068-0.701,29.716,1.105
		c22.872,4.285,39.938,26.25,40.19,49.562c0.347,31.815,0.88,63.629,1.356,95.443c0.024,1.656,0.267,3.312,0.421,4.966
		c0.355,3.807-0.747,6.941-4.245,8.869c-11.229,6.188-22.43,12.427-33.737,18.464c-4.057,2.165-5.62,1.228-6.348-3.481
		c-0.455-2.948-0.651-5.964-0.658-8.95c-0.073-30.99-0.024-61.981-0.162-92.973c-0.027-6.148-0.493-12.316-1.135-18.436
		c-0.929-8.854-6.419-13.809-14.318-13.361c-7.229,0.408-11.873,5.908-11.991,14.533c-0.326,23.812-0.815,47.629-0.783,71.442
		c0.07,50.974,0.538,101.945,0.614,152.919c0.029,19.979-0.837,39.961-0.742,59.938c0.048,10.129,1.131,20.271,2.109,30.374
		c0.836,8.638,5.607,12.872,13.225,12.451c8.024-0.443,12.955-5.594,13.035-14.104c0.231-24.49,0.277-48.98,0.482-73.471
		c0.158-18.987,0.449-37.973,0.675-56.959c0.05-4.169,0.723-8.422,4.732-10.363C337.7,751.95,349.99,746.501,363.098,740.482z"/>
	<path fill="#2F160F" d="M742.13,749.119c1.15-9.192,2.425-18.371,3.43-27.579c3.721-34.077,7.487-68.151,10.955-102.255
		c1.718-16.887,2.955-33.827,4.155-50.761c0.82-11.572-1.636-22.204-10.293-30.707c-0.881-0.865-1.339-2.163-2.502-4.114
		c24.303,0,47.743,0,72.297,0c-1.717,2.293-2.759,4.347-4.375,5.73c-7.823,6.705-11.387,15.495-12.443,25.385
		c-3.168,29.615-6.196,59.247-9.203,88.88c-3.965,39.071-7.947,78.144-11.751,117.231c-3.224,33.125-6.278,66.269-9.255,99.416
		c-1.429,15.911-2.646,31.846-3.688,47.785c-0.729,11.146,1.815,21.5,8.767,30.527c0.701,0.909,1.188,2.002,1.656,3.062
		c0.179,0.404,0.029,0.954,0.029,2.283c-2.846,0.289-5.721,0.823-8.599,0.833c-20.825,0.075-41.652,0.049-62.479,0.032
		c-1.324-0.001-2.691-0.026-3.966-0.337c-2.961-0.724-3.604-2.771-1.438-4.674c11.418-10.032,10.933-23.132,9.82-36.479
		c-1.877-22.557-3.621-45.125-5.565-67.676c-2.475-28.687-5.083-57.358-7.651-86.035c-2.421-27.017-4.758-54.042-7.337-81.045
		c-1.898-19.877-4.147-39.721-6.205-59.584c-1.92-18.539-3.282-37.156-5.927-55.591c-1.133-7.888-4.59-15.518-7.549-23.043
		c-2.633-6.694-1.802-8.666,5.344-8.489c18.638,0.461,37.271,1.127,55.903,1.744c0.95,0.031,1.892,0.374,3.745,0.763
		c-1.678,2.071-2.769,3.874-4.276,5.202c-7.17,6.314-9.021,14.31-8.273,23.48c1.758,21.568,3.155,43.168,4.899,64.737
		c2.106,26.043,4.396,52.072,6.655,78.104c1.248,14.385,2.593,28.761,3.894,43.142C741.312,749.099,741.722,749.108,742.13,749.119z
		"/>
	<path fill="#2F160F" d="M944.685,683.976c0.95,27.366,1.901,54.732,2.854,82.1c-0.577,0.285-1.155,0.569-1.732,0.854
		c-3.003-2.146-6.37-3.93-8.942-6.506c-8.844-8.857-19.153-12.784-31.705-11.128c-4.252,0.562-8.652,0.021-12.984-0.061
		c-6.443-0.122-6.93,0.316-6.853,6.592c0.276,22.322,0.562,44.646,0.845,66.968c0.335,26.489,0.675,52.979,1.002,79.467
		c0.088,7.079,0.279,7.576,7.312,7.224c13.118-0.658,26.234-1.528,39.32-2.675c6.797-0.597,12.717-3.636,17.864-8.211
		c1.109-0.986,3.471-2.177,4.138-1.7c1.243,0.883,2.278,2.9,2.331,4.481c0.513,15.312,0.898,30.626,1.099,45.943
		c0.065,5.131-2.08,7.113-7.44,7.291c-7.159,0.236-14.328,0.254-21.494,0.26c-29.165,0.025-58.331,0.025-87.497-0.012
		c-2.991-0.004-6.012-0.113-8.968-0.536c-4.591-0.656-5.854-3.143-3.053-6.925c8.388-11.329,10.255-24.197,10.25-37.821
		c-0.014-32.153,0.589-64.308,0.411-96.459c-0.16-28.974-1.146-57.943-1.552-86.917c-0.546-38.98-0.793-77.966-1.372-116.945
		c-0.173-11.645-1.048-23.277-1.561-34.919c-0.502-11.411-4.076-21.835-9.852-31.614c-3.769-6.384-2.771-8.729,4.79-9.203
		c13.791-0.866,27.618-1.297,41.438-1.579c22.655-0.465,45.315-0.713,67.975-0.956c9.033-0.099,10.27,1.031,10.48,9.831
		c0.324,13.492,0.456,26.989,0.557,40.484c0.013,1.741-0.649,3.488-1.131,5.882c-2.293-0.778-4.318-1.052-5.865-2.059
		c-13.13-8.55-27.906-10.347-43.041-10.729c-4.163-0.104-8.332-0.032-12.499,0.002c-4.165,0.033-6.536,1.832-6.516,6.334
		c0.17,37.495,0.15,74.99,0.504,112.482c0.117,12.339,0.977,13.113,13.308,12.354c8.422-0.521,16.828-1.999,25.117-3.67
		c7.182-1.446,12.614-5.71,16.078-12.381c1.106-2.132,2.812-3.951,4.244-5.913C943.256,683.729,943.97,683.854,944.685,683.976z"/>
	<path fill="#2F160F" d="M490.811,682.442c0.641,3.167,1.222,4.823,1.276,6.499c0.787,23.808,1.53,47.616,2.187,71.429
		c0.052,1.877-0.624,3.772-0.963,5.662c-1.721-0.76-3.695-1.196-5.122-2.326c-21.559-17.093-17.57-14.644-41.55-14.369
		c-15.551,0.178-13.965-3.512-13.881,13.836c0.167,34.161,0.397,68.321,0.708,102.48c0.11,12.153,0.641,24.305,0.75,36.458
		c0.045,4.986,2.021,7.62,7.125,7.303c12.926-0.806,25.957-0.955,38.725-2.858c6.275-0.936,12.162-4.979,18.036-7.983
		c5.23-2.676,7.008-1.938,7.152,3.832c0.367,14.484,0.71,28.972,0.974,43.46c0.128,6.958-1.308,8.405-8.358,8.858
		c-2.159,0.14-4.33,0.159-6.495,0.156c-33.497-0.046-66.994-0.05-100.49-0.229c-4.542-0.023-9.078-0.943-14.722-1.57
		c1.941-4.296,3.043-7.594,4.813-10.479c4.489-7.311,6.736-15.214,6.805-23.706c0.301-37.985,0.895-75.975,0.679-113.957
		c-0.349-61.479-0.94-122.963-2.099-184.431c-0.365-19.416-2.359-38.854-4.678-58.151c-0.802-6.676-4.547-13.1-7.481-19.388
		c-3.235-6.932-2.694-8.999,4.681-9.362c17.963-0.889,35.946-1.42,53.928-1.833c18.655-0.431,37.316-0.613,55.978-0.78
		c9.238-0.083,10.061,0.832,10.148,9.843c0.135,13.497,0.317,26.994,0.345,40.491c0.012,5.895-1.669,7.041-6.404,4.039
		c-13.488-8.552-28.462-10.799-43.986-10.976c-4.166-0.048-8.334-0.054-12.498,0.054c-3.451,0.089-5.658,1.551-5.64,5.438
		c0.014,2.657-0.402,5.315-0.404,7.974c-0.03,31.997-0.101,63.997,0.055,95.993c0.027,5.798,0.987,11.593,1.578,17.382
		c0.324,3.169,2.069,4.753,5.354,4.551c7.31-0.452,14.652-0.574,21.926-1.352c12.122-1.294,21.829-6.722,28.008-17.639
		C487.889,685.688,488.875,684.79,490.811,682.442z"/>
	<path fill="#2F160F" d="M1021.442,532.739c25.457,0,49.445,0,74.514,0c-1.661,3.095-2.604,5.569-4.143,7.594
		c-6.196,8.153-8.903,17.366-8.979,27.491c-0.211,28.146-0.607,56.293-0.637,84.439c-0.085,82.801,0.03,165.601-0.088,248.399
		c-0.019,12.492-2.697,24.43-9.831,35.08c-8.782,13.107-21.286,20.03-36.666,21.312c-8.201,0.686-16.564,0.062-24.812-0.554
		c-23.438-1.745-45.2-27.199-45.167-54.375c0.034-28.986,0.528-57.974,0.371-86.957c-0.112-20.676-0.575-17.644,16.8-24.354
		c6.207-2.397,12.366-4.929,18.617-7.208c5.043-1.841,6.81-0.65,6.896,4.765c0.151,9.494,0.002,18.992,0.093,28.488
		c0.207,21.48,0.364,42.965,0.803,64.44c0.132,6.47,0.926,12.947,1.773,19.375c1.175,8.918,7.131,14.41,14.66,13.953
		c6.879-0.417,12.502-6.909,12.985-15.257c0.193-3.317-0.067-6.66-0.067-9.991c-0.007-71.808,0.082-143.615-0.047-215.423
		c-0.053-29.644-0.436-59.289-0.963-88.929c-0.145-8.134-1.162-16.271-2.126-24.366c-0.991-8.319-4.729-15.532-9.886-22.062
		C1024.351,537.093,1023.326,535.447,1021.442,532.739z"/>
	<path fill="#2F160F" d="M1475.324,953.462c-25.198,0-49.937,0-75.354,0c0.878-1.588,1.272-2.646,1.95-3.474
		c8.06-9.832,11.646-21.353,11.7-33.796c0.23-52.144,0.236-104.287,0.235-156.433c-0.001-58.309-0.19-116.617-0.089-174.925
		c0.025-14.796-2.012-28.854-10.581-41.367c-0.798-1.164-1.183-2.609-2.01-4.498c24.982,0,49.3,0,74.143,0
		c-0.457,1.229-0.545,2.099-1.014,2.633c-9.578,10.906-12.464,24-12.465,38.025c-0.007,111.121-0.006,222.242,0.006,333.363
		c0.001,14.019,2.873,27.123,12.397,38.06C1474.646,951.511,1474.775,952.206,1475.324,953.462z"/>
	<path fill="#2F160F" d="M1155.597,444.868c-3.86-2.776-7.74-5.525-11.579-8.332c-19.632-14.359-39.332-28.625-58.812-43.184
		c-4.385-3.275-7.627-3.116-11.925,0.101c-21.476,16.066-43.136,31.883-64.742,47.771c-1.83,1.347-3.74,2.581-6.617,3.182
		c0.526-1.807,1.001-3.628,1.588-5.414c8.371-25.451,16.772-50.894,25.132-76.349c2.568-7.819,2.211-8.633-4.294-13.303
		c-21.652-15.542-43.281-31.119-64.905-46.702c-1.436-1.034-2.749-2.233-3.841-4.531c1.851-0.111,3.699-0.327,5.55-0.318
		c26.489,0.118,52.979,0.282,79.471,0.4c8.512,0.038,9.086-0.394,11.646-8.448c8.416-26.487,16.81-52.983,25.222-79.473
		c0.238-0.752,0.591-1.468,1.416-3.485c1.132,2.528,1.951,3.987,2.46,5.549c8.688,26.742,17.422,53.472,25.913,80.276
		c1.485,4.686,4.512,5.624,8.692,5.596c21.825-0.149,43.65-0.245,65.476-0.356c5.166-0.026,10.332-0.114,15.495-0.028
		c1.743,0.028,3.479,0.507,6.663,1.006c-2.301,1.966-3.51,3.158-4.872,4.14c-21.762,15.676-43.456,31.447-65.389,46.88
		c-4.651,3.273-5.627,6.41-3.816,11.71c8.605,25.193,16.896,50.494,25.26,75.771c0.745,2.256,1.212,4.604,1.809,6.911
		C1156.26,444.446,1155.929,444.657,1155.597,444.868z"/>
	<path fill="#2F160F" d="M843.592,364.949c-28.975,0-57.949-0.034-86.924,0.011c-22.148,0.035-44.298,0.137-66.447,0.289
		c-4.387,0.029-6.461-1.745-6.264-6.27c0.167-3.822,0.05-7.661-0.065-11.488c-0.113-3.767,1.636-5.585,5.368-5.554
		c6.993,0.06,13.987,0.176,20.98,0.177c77.779,0.013,155.56,0.023,233.34-0.006c13.155-0.005,26.311-0.201,39.467-0.308
		c8.677-0.071,15.224,4.606,21.005,10.193c4.038,3.902,0.38,11.947-5.582,13.091c-1.13,0.217-2.323,0.143-3.486,0.144
		c-49.301,0.006-98.6,0.004-147.898,0.004c-1.164,0-2.328,0-3.492,0C843.592,365.139,843.592,365.044,843.592,364.949z"/>
	<path fill="#2F160F" d="M841.021,384.708c49.477,0.001,98.951-0.004,148.428,0.005c7.4,0.002,7.572,0.251,5.331,7.235
		c-1.222,3.801-1.991,7.869-3.929,11.27c-1.144,2.007-4.166,4.182-6.346,4.185c-97.279,0.125-194.56,0.017-291.839-0.063
		c-8.663-0.007-8.7-0.004-8.669-8.453c0.056-15.311-2.23-14.185,14.095-14.181C745.736,384.715,793.379,384.708,841.021,384.708z"/>
	<path fill="#2F160F" d="M958.305,320.19c-3.442,0.235-6.886,0.675-10.329,0.677c-84.603,0.038-169.204,0.029-253.808,0.026
		c-1.332,0-2.664-0.047-3.996-0.056c-4.224-0.026-6.483-1.771-6.227-6.37c0.223-3.982-0.014-7.99-0.027-11.987
		c-0.012-3.042,1.481-4.644,4.565-4.674c1.499-0.015,2.997-0.032,4.496-0.032c75.608-0.001,151.219,0.039,226.827-0.069
		c6.812-0.01,12.626,1.675,18.04,5.892c6.771,5.274,13.943,10.034,20.942,15.016C958.628,319.139,958.467,319.664,958.305,320.19z"
		/>
</g>
</svg>
